<?xml version="1.0" encoding="UTF-8"?>
<svg width="168px" height="168px" viewBox="0 0 168 168" version="1.1" xmlns="http://www.w3.org/2000/svg" xmlns:xlink="http://www.w3.org/1999/xlink">
    <title>编组 2</title>
    <g id="页面-1" stroke="none" stroke-width="1" fill="none" fill-rule="evenodd">
        <g id="编组-2" fill="#34D399">
            <path d="M140.74471,55.4256224 C146.40855,51.869087 151,55.196136 151,62.8567942 L151,62.8567942 L151,143.212056 C151,150.872714 146.40855,156.577181 140.74471,155.953339 L140.74471,155.953339 L88.0537393,150.14971 C86.8044127,150.012104 85.6072636,149.72911 84.5000598,149.330439 C83.3934593,149.728939 82.1959645,150.012062 80.9462607,150.14971 L28.2552897,155.953339 C22.5914496,156.577181 18,150.872714 18,143.212056 L18,62.8567942 C18,55.196136 22.5914496,51.869087 28.2552897,55.4256224 L80.9462607,88.5122379 C82.1958261,89.2968863 83.393194,90.1999504 84.5005751,91.1721351 C85.6075299,90.1994044 86.8045517,89.2966491 88.0537393,88.5122379 L88.0537393,88.5122379 Z" id="形状结合" fill-opacity="0.3"></path>
            <path d="M118.105736,0.0495395843 L48.3592724,13.7390799 C47.2129152,13.964068 46.3641601,14.9371866 46.2950098,16.1050213 L42.004622,88.6879894 C41.9037138,90.3975914 43.4711192,91.7244313 45.1368715,91.339617 L64.5552818,86.8506291 C66.3721401,86.4309249 68.0138179,88.033805 67.6404067,89.8639821 L61.8712282,118.162205 C61.4829624,120.066779 63.2680629,121.695314 65.1248748,121.130406 L77.1185988,117.480314 C78.9779718,116.914893 80.7646089,118.548045 80.3712209,120.454159 L71.2029243,164.904324 C70.6292335,167.684736 74.3213438,169.200904 75.861089,166.817107 L76.8896347,165.225002 L133.722932,51.6134338 C134.674644,49.711168 133.033478,47.5420977 130.947702,47.9452806 L110.959699,51.8094325 C109.081374,52.1721842 107.483235,50.4199961 108.013387,48.5791981 L121.059219,3.27812702 C121.589883,1.43422483 119.98611,-0.319481491 118.105736,0.0495395843 Z" id="路径" fill-rule="nonzero"></path>
        </g>
    </g>
</svg>